<svg
  xmlns="http://www.w3.org/2000/svg"
  version="1.1"
  xmlns:xlink="http://www.w3.org/1999/xlink"
  xmlns:svgjs="http://svgjs.com/svgjs"
  width="768"
  height="840"
  preserveAspectRatio="none"
  viewBox="0 0 768 840"
>
  <g mask='url("#SvgjsMask1043")' fill="none">
    <path
      d="M227.066,698.997C276.384,701,330.877,693.421,356.764,651.395C383.567,607.884,370.094,552.945,344.158,508.911C318.677,465.649,277.267,430.286,227.066,431.192C178.098,432.075,140.191,469.833,117.071,513.008C95.387,553.501,91.035,602.014,114.418,641.551C137.415,680.436,181.927,697.163,227.066,698.997"
      class="triangle-float1"
    ></path>
    <path
      d="M707.866,415.348C771.358,414.837,839.525,403.155,872.762,349.055C907.23,292.95,895.934,221.281,861.616,165.084C828.809,111.362,770.813,78.875,707.866,79.034C645.199,79.192,588.541,112.636,555.452,165.855C520.236,222.495,503.534,294.834,538.303,351.749C572.032,406.962,643.168,415.869,707.866,415.348"
      class="triangle-float3"
    ></path>
    <path
      d="M593.097,545.801C617.203,544.186,631.133,521.041,642.683,499.82C653.537,479.878,662.601,457.243,652.312,437.004C641.198,415.143,617.606,401.43,593.097,402.284C569.835,403.094,552.538,420.899,540.622,440.894C528.33,461.521,519.751,485.861,530.493,507.336C542.237,530.814,566.905,547.556,593.097,545.801"
      class="triangle-float2"
    ></path>
    <path
      d="M97.066,888.899C149.618,884.708,195.659,856.661,222.607,811.35C250.235,764.895,259.687,707.39,232.949,660.417C205.965,613.012,151.602,591.895,97.066,590.797C40.231,589.653,-16.668,607.74,-48.635,654.748C-84.988,708.206,-102.872,779.694,-68.717,834.583C-35.789,887.501,34.937,893.854,97.066,888.899"
      class="triangle-float3"
    ></path>
    <path
      d="M747.554,223.919C804.262,222.589,863.374,210.389,894.037,162.667C926.983,111.393,925.491,45.709,896.511,-7.906C865.992,-64.37,811.665,-111.412,747.554,-108.341C686.974,-105.44,651.499,-47.394,621.418,5.27C591.688,57.321,558.715,117.904,588.669,169.827C618.633,221.768,687.606,225.325,747.554,223.919"
      class="triangle-float1"
    ></path>
    <path
      d="M-7.708,167.465C18.196,167.19,41.087,153.03,55.106,131.246C70.563,107.229,79.764,77.429,66.525,52.122C52.485,25.286,22.567,12.03,-7.708,11.178C-39.718,10.277,-74.409,19.512,-89.552,47.728C-104.165,74.958,-90.313,107.091,-72.874,132.604C-57.974,154.402,-34.111,167.745,-7.708,167.465"
      class="triangle-float1"
    ></path>
    <path
      d="M312.352,482.331C340.305,481.401,367.146,469.87,381.682,445.976C396.798,421.128,398.096,390.024,383.974,364.597C369.443,338.432,342.207,323.251,312.352,321.144C277.79,318.705,238.602,323.366,220.78,353.079C202.632,383.336,214.145,422.083,234.541,450.872C251.875,475.339,282.384,483.328,312.352,482.331"
      class="triangle-float2"
    ></path>
    <path
      d="M104.747,722.273C161.913,720.297,209.593,683.202,238.038,633.576C266.309,584.254,275.126,523.897,246.665,474.684C218.235,425.525,161.534,402.85,104.747,403.095C48.432,403.338,-5.201,428.154,-35.062,475.902C-66.85,526.732,-75.112,591.238,-45.524,643.379C-15.597,696.115,44.147,724.368,104.747,722.273"
      class="triangle-float3"
    ></path>
    <path
      d="M505.632,720.71C552.224,720.843,576.879,671.01,599.712,630.397C621.876,590.974,645.784,547.252,626.024,506.571C604.297,461.841,555.228,433.099,505.632,436.714C460.528,440.002,431.877,481.421,412.232,522.155C395.516,556.815,396.101,595.041,412.48,629.861C432.268,671.926,459.145,720.577,505.632,720.71"
      class="triangle-float1"
    ></path>
    <path
      d="M240.169,831.168C317.702,833.044,399.637,804.601,435.093,735.624C468.555,670.525,428.896,598.642,392.266,535.271C355.683,471.982,313.249,400.15,240.169,398.402C165.234,396.61,110.855,461.898,74.925,527.681C40.78,590.196,26.864,664.009,60.927,726.569C96.382,791.685,166.048,829.374,240.169,831.168"
     
      class="triangle-float2"
    ></path>
  </g>
  <defs>
    <mask id="SvgjsMask1043">
      <rect width="768" height="840" fill="white"></rect>
    </mask>
    <style>
      *>path{
        fill: #0054588a;
      }
      @keyframes float1 {
        0% {
          transform: translate(0, 0);
        }
        50% {
          transform: translate(-20px, 0);
        }
        100% {
          transform: translate(0, 0);
        }
      }
      .triangle-float1 {
        animation: float1 5s infinite;
      }
      @keyframes float2 {
        0% {
          transform: translate(0, 0);
        }
        50% {
          transform: translate(-10px, -10px);
        }
        100% {
          transform: translate(0, 0);
        }
      }
      .triangle-float2 {
        animation: float2 4s infinite;
      }
      @keyframes float3 {
        0% {
          transform: translate(0, 0);
        }
        50% {
          transform: translate(0, -15px);
        }
        100% {
          transform: translate(0, 0);
        }
      }
      .triangle-float3 {
        animation: float3 6s infinite;
      }
    </style>
  </defs>
</svg>
